<?xml version="1.0" encoding="UTF-8"?>
<svg id="Layer_1" xmlns="http://www.w3.org/2000/svg" viewBox="0 0 60 52">
  <defs>
    <style>
      .cls-1 {
        fill: transparent;
      }

      .cls-2 {
        fill: #ccc;
      }
      .cls-3 {
        fill: transparent;
      }
    </style>
  </defs>
  <g id="Upper">
    <path class="cls-1" d="M30,35.33c-.34,0-.68-.09-.98-.26L3.02,20.41c-.63-.35-1.02-1.02-1.02-1.74s.39-1.39,1.02-1.74L29.02,2.26c.3-.17,.64-.26,.98-.26s.68,.09,.98,.26l26,14.67c.63,.35,1.02,1.02,1.02,1.74s-.39,1.39-1.02,1.74l-26,14.67c-.3,.17-.64,.26-.98,.26Z" />
    <path class="cls-2" d="M30,4l26,14.67-26,14.67L4,18.67,30,4m0-4c-.68,0-1.36,.17-1.97,.52L2.03,15.18c-1.26,.71-2.03,2.04-2.03,3.48s.78,2.77,2.03,3.48l26,14.67c.61,.34,1.29,.52,1.97,.52s1.36-.17,1.97-.52l26-14.67c1.26-.71,2.03-2.04,2.03-3.48s-.78-2.77-2.03-3.48L31.97,.52c-.61-.34-1.29-.52-1.97-.52h0Z" />
  </g>
  <g id="Anim">
    <rect class="cls-1" x="14" y="33" width="32" height="15.27" rx="7" ry="7" />
    <path class="cls-3" d="M39,35c2.76,0,5,2.24,5,5v1.27c0,2.76-2.24,5-5,5H21c-2.76,0-5-2.24-5-5v-1.27c0-2.76,2.24-5,5-5h18m0-4H21c-4.96,0-9,4.04-9,9v1.27c0,4.96,4.04,9,9,9h18c4.96,0,9-4.04,9-9v-1.27c0-4.96-4.04-9-9-9h0Z" />
  </g>
  <g id="Lower">
    <path class="cls-1" d="M8.34,50c-3.49,0-6.34-2.83-6.34-6.32V18.67c0-.71,.38-1.37,.99-1.73,.31-.18,.66-.27,1.01-.27s.68,.09,.98,.26l25.02,14.11,25.02-14.11c.3-.17,.64-.26,.98-.26s.7,.09,1.01,.27c.61,.36,.99,1.02,.99,1.73v25.02c0,3.48-2.84,6.32-6.33,6.32H8.34Z" />
    <path class="cls-2" d="M56,18.67v25.02c0,2.38-1.94,4.32-4.34,4.32H8.34c-2.39,0-4.34-1.93-4.34-4.32V18.67l26,14.67,26-14.67m0-4c-.68,0-1.35,.17-1.97,.52l-24.03,13.56L5.97,15.18c-.61-.34-1.29-.52-1.97-.52-.7,0-1.39,.18-2.02,.55-1.23,.72-1.98,2.03-1.98,3.45v25.02c0,4.59,3.74,8.32,8.34,8.32H51.66c4.6,0,8.34-3.73,8.34-8.32V18.67c0-1.42-.75-2.74-1.98-3.45-.62-.36-1.32-.55-2.02-.55h0Z" />
  </g>
</svg>